<?xml version="1.0" encoding="UTF-8" standalone="no"?>
<!DOCTYPE svg PUBLIC "-//W3C//DTD SVG 1.1//EN"
 "http://www.w3.org/Graphics/SVG/1.1/DTD/svg11.dtd">
<!-- Generated by graphviz version 12.2.1 (20241206.2353)
 -->
<!-- Title: FireMarkersArchitecture Pages: 1 -->
<svg width="657pt" height="646pt"
 viewBox="0.00 0.00 657.00 646.00" xmlns="http://www.w3.org/2000/svg" xmlns:xlink="http://www.w3.org/1999/xlink">
<g id="graph0" class="graph" transform="scale(1 1) rotate(0) translate(4 642)">
<title>FireMarkersArchitecture</title>
<polygon fill="#fafafa" stroke="none" points="-4,4 -4,-642 653,-642 653,4 -4,4"/>
<g id="clust1" class="cluster">
<title>cluster_firebase</title>
<polygon fill="#ffebee" stroke="#ffebee" points="416,-8 416,-84.5 572,-84.5 572,-8 416,-8"/>
<text text-anchor="middle" x="494" y="-67.2" font-family="Times,serif" font-size="14.00">Firebase Cloud</text>
</g>
<g id="clust2" class="cluster">
<title>cluster_android_app</title>
<polygon fill="#e3f2fd" stroke="#e3f2fd" points="8,-111 8,-630 641,-630 641,-111 8,-111"/>
<text text-anchor="middle" x="324.5" y="-612.7" font-family="Times,serif" font-size="14.00">Android App</text>
</g>
<g id="clust3" class="cluster">
<title>cluster_ui_layer</title>
<polygon fill="#bbdefb" stroke="#bbdefb" points="16,-329 16,-597.5 384,-597.5 384,-329 16,-329"/>
<text text-anchor="middle" x="200" y="-580.2" font-family="Times,serif" font-size="14.00">UI Layer (View)</text>
</g>
<g id="clust4" class="cluster">
<title>cluster_viewmodel_layer</title>
<polygon fill="#c5e1a5" stroke="#c5e1a5" points="287,-224 287,-300.5 493,-300.5 493,-224 287,-224"/>
<text text-anchor="middle" x="390" y="-283.2" font-family="Times,serif" font-size="14.00">State &amp; Logic Layer (ViewModel)</text>
</g>
<g id="clust5" class="cluster">
<title>cluster_data_layer</title>
<polygon fill="#fff9c4" stroke="#fff9c4" points="305,-119 305,-195.5 558,-195.5 558,-119 305,-119"/>
<text text-anchor="middle" x="431.5" y="-178.2" font-family="Times,serif" font-size="14.00">Data Layer</text>
</g>
<g id="clust6" class="cluster">
<title>cluster_di_layer</title>
<polygon fill="#f5f5f5" stroke="#f5f5f5" points="498,-343 498,-419.5 633,-419.5 633,-343 498,-343"/>
<text text-anchor="middle" x="565.5" y="-402.2" font-family="Times,serif" font-size="14.00">Dependency Injection</text>
</g>
<!-- DB -->
<g id="node1" class="node">
<title>DB</title>
<path fill="#ffcdd2" stroke="black" d="M552.25,-52C552.25,-52 435.75,-52 435.75,-52 429.75,-52 423.75,-46 423.75,-40 423.75,-40 423.75,-28 423.75,-28 423.75,-22 429.75,-16 435.75,-16 435.75,-16 552.25,-16 552.25,-16 558.25,-16 564.25,-22 564.25,-28 564.25,-28 564.25,-40 564.25,-40 564.25,-46 558.25,-52 552.25,-52"/>
<text text-anchor="middle" x="494" y="-36.5" font-family="Arial" font-size="10.00">Firebase Realtime Database</text>
<text text-anchor="middle" x="494" y="-24.5" font-family="Arial" font-size="10.00">/markers</text>
</g>
<!-- FirebaseConnection -->
<g id="node7" class="node">
<title>FirebaseConnection</title>
<path fill="lightgrey" stroke="black" d="M537.5,-163C537.5,-163 458.5,-163 458.5,-163 452.5,-163 446.5,-157 446.5,-151 446.5,-151 446.5,-139 446.5,-139 446.5,-133 452.5,-127 458.5,-127 458.5,-127 537.5,-127 537.5,-127 543.5,-127 549.5,-133 549.5,-139 549.5,-139 549.5,-151 549.5,-151 549.5,-157 543.5,-163 537.5,-163"/>
<text text-anchor="middle" x="498" y="-141.5" font-family="Arial" font-size="10.00">FirebaseConnection</text>
</g>
<!-- DB&#45;&gt;FirebaseConnection -->
<g id="edge8" class="edge">
<title>DB&#45;&gt;FirebaseConnection</title>
<path fill="none" stroke="blue" stroke-dasharray="5,2" d="M466.82,-52.27C449.91,-65.36 433.03,-84.23 442.5,-103 445.65,-109.25 450.25,-114.78 455.48,-119.59"/>
<polygon fill="blue" stroke="blue" points="452.94,-122.04 462.92,-125.62 457.35,-116.6 452.94,-122.04"/>
<text text-anchor="middle" x="479.25" y="-94.45" font-family="Arial" font-size="9.00"> real&#45;time updates</text>
</g>
<!-- MainActivity -->
<g id="node2" class="node">
<title>MainActivity</title>
<path fill="lightgrey" stroke="black" d="M294,-565C294,-565 248,-565 248,-565 242,-565 236,-559 236,-553 236,-553 236,-541 236,-541 236,-535 242,-529 248,-529 248,-529 294,-529 294,-529 300,-529 306,-535 306,-541 306,-541 306,-553 306,-553 306,-559 300,-565 294,-565"/>
<text text-anchor="middle" x="271" y="-543.5" font-family="Arial" font-size="10.00">MainActivity</text>
</g>
<!-- MapScreen -->
<g id="node3" class="node">
<title>MapScreen</title>
<path fill="lightgrey" stroke="black" d="M320.62,-492C320.62,-492 221.38,-492 221.38,-492 215.38,-492 209.38,-486 209.38,-480 209.38,-480 209.38,-468 209.38,-468 209.38,-462 215.38,-456 221.38,-456 221.38,-456 320.62,-456 320.62,-456 326.62,-456 332.62,-462 332.62,-468 332.62,-468 332.62,-480 332.62,-480 332.62,-486 326.62,-492 320.62,-492"/>
<text text-anchor="middle" x="271" y="-470.5" font-family="Arial" font-size="10.00">MapScreen Composable</text>
</g>
<!-- MainActivity&#45;&gt;MapScreen -->
<g id="edge1" class="edge">
<title>MainActivity&#45;&gt;MapScreen</title>
<path fill="none" stroke="black" d="M271,-528.81C271,-521.23 271,-512.1 271,-503.54"/>
<polygon fill="black" stroke="black" points="274.5,-503.54 271,-493.54 267.5,-503.54 274.5,-503.54"/>
</g>
<!-- TopAppBar -->
<g id="node4" class="node">
<title>TopAppBar</title>
<path fill="lightgrey" stroke="black" d="M259.52,-397.51C259.52,-397.51 177.23,-372.49 177.23,-372.49 171.49,-370.75 171.49,-367.25 177.23,-365.51 177.23,-365.51 259.52,-340.49 259.52,-340.49 265.26,-338.75 276.74,-338.75 282.48,-340.49 282.48,-340.49 364.77,-365.51 364.77,-365.51 370.51,-367.25 370.51,-370.75 364.77,-372.49 364.77,-372.49 282.48,-397.51 282.48,-397.51 276.74,-399.25 265.26,-399.25 259.52,-397.51"/>
<text text-anchor="middle" x="271" y="-371.5" font-family="Arial" font-size="10.00">TopAppBar Actions</text>
<text text-anchor="middle" x="271" y="-359.5" font-family="Arial" font-size="10.00">(Cycle, Seed, Clear)</text>
</g>
<!-- MapScreen&#45;&gt;TopAppBar -->
<g id="edge2" class="edge">
<title>MapScreen&#45;&gt;TopAppBar</title>
<path fill="none" stroke="black" d="M271,-455.53C271,-443.73 271,-427.61 271,-412.55"/>
<polygon fill="black" stroke="black" points="274.5,-412.84 271,-402.84 267.5,-412.84 274.5,-412.84"/>
<text text-anchor="middle" x="306.62" y="-429.45" font-family="Arial" font-size="9.00"> exposes controls</text>
</g>
<!-- GoogleMap -->
<g id="node5" class="node">
<title>GoogleMap</title>
<path fill="lightgrey" stroke="black" d="M135.62,-387C135.62,-387 36.38,-387 36.38,-387 30.38,-387 24.38,-381 24.38,-375 24.38,-375 24.38,-363 24.38,-363 24.38,-357 30.38,-351 36.38,-351 36.38,-351 135.62,-351 135.62,-351 141.62,-351 147.62,-357 147.62,-363 147.62,-363 147.62,-375 147.62,-375 147.62,-381 141.62,-387 135.62,-387"/>
<text text-anchor="middle" x="86" y="-365.5" font-family="Arial" font-size="10.00">GoogleMap Composable</text>
</g>
<!-- MapScreen&#45;&gt;GoogleMap -->
<g id="edge3" class="edge">
<title>MapScreen&#45;&gt;GoogleMap</title>
<path fill="none" stroke="black" d="M229.52,-455.57C207.51,-445.83 180.29,-432.95 157,-419.5 143.76,-411.85 129.82,-402.46 117.83,-393.92"/>
<polygon fill="black" stroke="black" points="120.07,-391.22 109.92,-388.19 115.97,-396.89 120.07,-391.22"/>
<text text-anchor="middle" x="208.96" y="-429.45" font-family="Arial" font-size="9.00"> contains</text>
</g>
<!-- MarkersViewModel -->
<g id="node6" class="node">
<title>MarkersViewModel</title>
<path fill="lightgrey" stroke="black" d="M460.62,-268C460.62,-268 385.38,-268 385.38,-268 379.38,-268 373.38,-262 373.38,-256 373.38,-256 373.38,-244 373.38,-244 373.38,-238 379.38,-232 385.38,-232 385.38,-232 460.62,-232 460.62,-232 466.62,-232 472.62,-238 472.62,-244 472.62,-244 472.62,-256 472.62,-256 472.62,-262 466.62,-268 460.62,-268"/>
<text text-anchor="middle" x="423" y="-246.5" font-family="Arial" font-size="10.00">MarkersViewModel</text>
</g>
<!-- TopAppBar&#45;&gt;MarkersViewModel -->
<g id="edge4" class="edge">
<title>TopAppBar&#45;&gt;MarkersViewModel</title>
<path fill="none" stroke="black" d="M300.31,-345.44C326.54,-325.25 364.9,-295.72 391.73,-275.07"/>
<polygon fill="black" stroke="black" points="393.71,-277.97 399.49,-269.09 389.44,-272.42 393.71,-277.97"/>
<text text-anchor="middle" x="374.75" y="-310.45" font-family="Arial" font-size="9.00"> calls function</text>
</g>
<!-- MarkersViewModel&#45;&gt;MapScreen -->
<g id="edge10" class="edge">
<title>MarkersViewModel&#45;&gt;MapScreen</title>
<path fill="none" stroke="blue" stroke-dasharray="5,2" d="M421.03,-268.3C416.39,-306.41 403.74,-396.09 385,-419.5 374.13,-433.08 359.01,-443.39 343.32,-451.15"/>
<polygon fill="blue" stroke="blue" points="341.98,-447.91 334.35,-455.25 344.89,-454.28 341.98,-447.91"/>
<text text-anchor="middle" x="451.11" y="-365.7" font-family="Arial" font-size="9.00"> updates StateFlow</text>
</g>
<!-- MarkersViewModel&#45;&gt;FirebaseConnection -->
<g id="edge5" class="edge">
<title>MarkersViewModel&#45;&gt;FirebaseConnection</title>
<path fill="none" stroke="black" d="M435.72,-231.53C447.54,-215.3 465.29,-190.92 478.83,-172.33"/>
<polygon fill="black" stroke="black" points="481.52,-174.58 484.57,-164.44 475.86,-170.46 481.52,-174.58"/>
<text text-anchor="middle" x="466.88" y="-205.45" font-family="Arial" font-size="9.00"> uses</text>
</g>
<!-- MarkerData -->
<g id="node8" class="node">
<title>MarkerData</title>
<ellipse fill="lightgrey" stroke="black" cx="371" cy="-145" rx="57.88" ry="18"/>
<text text-anchor="middle" x="371" y="-141.5" font-family="Arial" font-size="10.00">MarkerData Model</text>
</g>
<!-- MarkersViewModel&#45;&gt;MarkerData -->
<g id="edge6" class="edge">
<title>MarkersViewModel&#45;&gt;MarkerData</title>
<path fill="none" stroke="black" stroke-dasharray="5,2" d="M399.27,-231.78C393.66,-226.64 388.23,-220.61 384.5,-214 377.77,-202.09 374.35,-187.35 372.64,-174.64"/>
<polygon fill="black" stroke="black" points="376.12,-174.33 371.61,-164.74 369.16,-175.05 376.12,-174.33"/>
<text text-anchor="middle" x="409.25" y="-205.45" font-family="Arial" font-size="9.00"> uses model</text>
</g>
<!-- FirebaseConnection&#45;&gt;DB -->
<g id="edge7" class="edge">
<title>FirebaseConnection&#45;&gt;DB</title>
<path fill="none" stroke="black" d="M511.26,-126.91C517.29,-117.14 522.58,-104.48 520,-92.5 517.81,-82.34 513.67,-71.81 509.33,-62.59"/>
<polygon fill="black" stroke="black" points="512.54,-61.17 504.92,-53.81 506.28,-64.31 512.54,-61.17"/>
<text text-anchor="middle" x="551.42" y="-94.45" font-family="Arial" font-size="9.00"> reads/writes to</text>
</g>
<!-- FirebaseConnection&#45;&gt;MarkersViewModel -->
<g id="edge9" class="edge">
<title>FirebaseConnection&#45;&gt;MarkersViewModel</title>
<path fill="none" stroke="blue" stroke-dasharray="5,2" d="M479.34,-163.47C468.44,-174.31 454.93,-188.91 445,-203.5 441.14,-209.17 437.59,-215.62 434.51,-221.84"/>
<polygon fill="blue" stroke="blue" points="431.51,-220.01 430.46,-230.55 437.85,-222.96 431.51,-220.01"/>
</g>
<!-- Hilt -->
<g id="node9" class="node">
<title>Hilt</title>
<path fill="lightgrey" stroke="black" d="M561.75,-387C561.75,-387 520.25,-387 520.25,-387 514.25,-387 508.25,-381 508.25,-375 508.25,-375 508.25,-363 508.25,-363 508.25,-357 514.25,-351 520.25,-351 520.25,-351 561.75,-351 561.75,-351 567.75,-351 573.75,-357 573.75,-363 573.75,-363 573.75,-375 573.75,-375 573.75,-381 567.75,-387 561.75,-387"/>
<text text-anchor="middle" x="541" y="-365.5" font-family="Arial" font-size="10.00">Hilt/Dagger</text>
</g>
<!-- Hilt&#45;&gt;MarkersViewModel -->
<g id="edge12" class="edge">
<title>Hilt&#45;&gt;MarkersViewModel</title>
<path fill="none" stroke="black" stroke-dasharray="1,5" d="M523.59,-350.74C503.81,-331.12 471.33,-298.92 448.65,-276.43"/>
<polygon fill="none" stroke="black" points="451.12,-273.96 441.56,-269.4 446.19,-278.93 451.12,-273.96"/>
<text text-anchor="middle" x="503.31" y="-310.45" font-family="Arial" font-size="9.00"> injects</text>
</g>
<!-- Hilt&#45;&gt;FirebaseConnection -->
<g id="edge11" class="edge">
<title>Hilt&#45;&gt;FirebaseConnection</title>
<path fill="none" stroke="black" stroke-dasharray="1,5" d="M537.63,-350.58C530.23,-312.4 512.54,-221.06 503.51,-174.43"/>
<polygon fill="none" stroke="black" points="506.98,-173.98 501.65,-164.82 500.11,-175.31 506.98,-173.98"/>
<text text-anchor="middle" x="542.15" y="-246.7" font-family="Arial" font-size="9.00"> injects</text>
</g>
</g>
</svg>
